<?xml version="1.0" standalone="no"?>
<!DOCTYPE svg PUBLIC "-//W3C//DTD SVG 20010904//EN"
 "http://www.w3.org/TR/2001/REC-SVG-20010904/DTD/svg10.dtd">
<svg version="1.0" xmlns="http://www.w3.org/2000/svg"
 width="36.000000pt" height="36.000000pt" viewBox="0 0 36.000000 36.000000"
 preserveAspectRatio="xMidYMid meet">

<g transform="translate(0.000000,36.000000) scale(0.100000,-0.100000)"
fill="#000000" stroke="none">
<path d="M0 180 l0 -180 180 0 180 0 0 180 0 180 -180 0 -180 0 0 -180z m227
154 c-3 -3 -12 -4 -19 -1 -8 3 -5 6 6 6 11 1 17 -2 13 -5z m-190 -46 c-3 -8
-6 -5 -6 6 -1 11 2 17 5 13 3 -3 4 -12 1 -19z m57 -50 c-5 -49 -9 -55 -28 -39
-12 10 -12 17 2 51 21 48 31 43 26 -12z m131 16 c5 -28 2 -39 -12 -50 -19 -14
-58 -11 -80 8 -18 15 -16 48 2 48 8 0 15 -7 15 -15 0 -10 10 -15 26 -15 24 0
26 3 21 30 -5 22 -3 30 7 30 8 0 17 -16 21 -36z m58 -11 c-13 -2 -23 -9 -23
-14 0 -6 9 -7 21 -4 15 5 19 4 15 -4 -9 -14 -33 -14 -41 -1 -10 16 4 30 28 29
22 -2 22 -2 0 -6z m-173 -63 c0 -5 -5 -10 -11 -10 -5 0 -7 5 -4 10 3 6 8 10
11 10 2 0 4 -4 4 -10z m50 -1 c0 8 2 12 5 9 3 -3 2 -13 -1 -22 -5 -14 -9 -15
-15 -4 -5 7 -9 18 -9 23 0 6 5 3 10 -5 8 -12 10 -12 10 -1z m143 -119 c5 -8
-1 -4 -12 9 -12 13 -21 35 -20 50 1 24 2 23 13 -9 6 -19 15 -42 19 -50z m-90
2 c-3 -10 -10 -22 -15 -29 -5 -7 -4 -13 4 -16 7 -3 -2 -6 -19 -6 -31 -1 -32 0
-23 25 7 16 7 32 0 44 -8 15 -6 19 8 23 23 5 52 -21 45 -41z m115 41 c-1 -5 3
-18 10 -30 8 -15 9 -23 2 -23 -5 0 -10 6 -10 14 0 8 -7 17 -16 20 -8 3 -12 10
-9 16 7 12 26 14 23 3z m-188 -10 c-1 -5 -16 -25 -34 -47 -27 -31 -37 -37 -56
-31 -19 6 -21 9 -8 16 8 5 21 22 28 39 10 24 19 30 41 30 16 0 29 -3 29 -7z
m160 -74 c0 -18 -18 -9 -23 12 -4 16 -3 18 9 8 8 -6 14 -15 14 -20z m36 -6
c-7 -7 -26 7 -26 19 0 6 6 6 15 -2 9 -7 13 -15 11 -17z"/>
</g>
</svg>
